HIERARCHY
ROOT Hips
{
 OFFSET 0.000000 0.000000 0.000000
 CHANNELS 6 Xposition Yposition Zposition Yrotation Xrotation Zrotation
 JOINT Chest
 {
  OFFSET 0.000000 9.588913 -0.003946
  CHANNELS 3 Yrotation Xrotation Zrotation
  JOINT Chest2
  {
   OFFSET 0.000000 9.541882 0.008053
   CHANNELS 3 Yrotation Xrotation Zrotation
   JOINT Chest3
   {
    OFFSET 0.000000 9.501360 0.000000
    CHANNELS 3 Yrotation Xrotation Zrotation
    JOINT Chest4
    {
     OFFSET 0.000000 9.491660 0.000000
     CHANNELS 3 Yrotation Xrotation Zrotation
     JOINT Neck
     {
      OFFSET 0.000000 14.331917 0.000000
      CHANNELS 3 Yrotation Xrotation Zrotation
      JOINT Head
      {
       OFFSET 0.000000 8.884799 0.017034
       CHANNELS 3 Yrotation Xrotation Zrotation
       End Site
       {
        OFFSET 0.000000 16.896195 0.008993
       }
      }
     }
     JOINT RightCollar
     {
      OFFSET -2.923010 9.499495 0.000000
      CHANNELS 3 Yrotation Xrotation Zrotation
      JOINT RightShoulder
      {
       OFFSET -13.795216 0.000000 0.000000
       CHANNELS 3 Yrotation Xrotation Zrotation
       JOINT RightElbow
       {
        OFFSET -30.272209 0.000000 0.000000
        CHANNELS 3 Yrotation Xrotation Zrotation
        JOINT RightWrist
        {
         OFFSET -24.478199 0.000000 0.000000
         CHANNELS 3 Yrotation Xrotation Zrotation
         End Site
         {
          OFFSET -18.090752 0.000000 0.000000
         }
        }
       }
      }
     }
     JOINT LeftCollar
     {
      OFFSET 2.923010 9.499495 0.000000
      CHANNELS 3 Yrotation Xrotation Zrotation
      JOINT LeftShoulder
      {
       OFFSET 13.795216 0.000000 0.000000
       CHANNELS 3 Yrotation Xrotation Zrotation
       JOINT LeftElbow
       {
        OFFSET 30.272209 0.000000 0.000000
        CHANNELS 3 Yrotation Xrotation Zrotation
        JOINT LeftWrist
        {
         OFFSET 24.478199 0.000000 0.000000
         CHANNELS 3 Yrotation Xrotation Zrotation
         End Site
         {
          OFFSET 18.090752 0.000000 0.000000
         }
        }
       }
      }
     }
    }
   }
  }
 }
 JOINT RightHip
 {
  OFFSET -7.826875 0.019532 0.001973
  CHANNELS 3 Yrotation Xrotation Zrotation
  JOINT RightKnee
  {
   OFFSET 0.000000 -40.546152 -0.001885
   CHANNELS 3 Yrotation Xrotation Zrotation
   JOINT RightAnkle
   {
    OFFSET 0.000000 -39.417092 -0.003189
    CHANNELS 3 Yrotation Xrotation Zrotation
    JOINT RightToe
    {
     OFFSET 0.000000 -7.579396 17.243563
     CHANNELS 3 Yrotation Xrotation Zrotation
     End Site
     {
      OFFSET 0.000000 -1.500329 6.694466
     }
    }
   }
  }
 }
 JOINT LeftHip
 {
  OFFSET 7.826875 0.019532 0.001973
  CHANNELS 3 Yrotation Xrotation Zrotation
  JOINT LeftKnee
  {
   OFFSET 0.000000 -40.546152 -0.001885
   CHANNELS 3 Yrotation Xrotation Zrotation
   JOINT LeftAnkle
   {
    OFFSET 0.000000 -39.417092 -0.003189
    CHANNELS 3 Yrotation Xrotation Zrotation
    JOINT LeftToe
    {
     OFFSET 0.000000 -7.579396 17.243563
     CHANNELS 3 Yrotation Xrotation Zrotation
     End Site
     {
      OFFSET 0.000000 -1.500329 6.694466
     }
    }
   }
  }
 }
}
MOTION
Frames: 17
Frame Time: 0.008333
0.000000 87.345680 0.000000 0.000000 -5.767889 0.000000 0.000000 11.653876 0.000000 0.000000 -5.885988 0.000000 0.000000 -0.000000 0.000000 0.000000 -0.000000 0.000000 0.000000 12.528808 0.000000 0.000000 0.711711 0.000000 0.000000 -0.000000 0.000000 0.000000 -0.000000 0.000000 2.309063 -0.000000 0.000000 -2.309063 -0.000000 -0.000000 0.000000 -0.000000 0.000000 0.000000 0.000000 0.000000 -2.309063 0.000000 0.000000 2.309063 -0.000000 0.000000 0.000000 8.520374 0.000000 0.000000 1.905768 0.000000 -0.000000 -4.658254 0.000000 0.000000 -0.000000 0.000000 0.000000 8.520374 0.000000 0.000000 1.905768 0.000000 -0.000000 -4.658254 0.000000 0.000000 -0.000000 0.000000
18.942374 88.619657 -3.367837 42.236307 -7.484459 3.204736 2.976844 4.882180 1.521910 1.708498 2.804371 0.838105 2.142667 3.501437 1.061005 1.708498 2.804372 0.838106 1.470102 15.284064 -1.709640 1.926629 -9.668051 -2.123191 -4.896121 -1.835702 -3.316621 2.485853 -1.728638 86.011488 5.975863 -2.300995 3.433344 3.845531 -5.299699 -5.062274 -11.023583 -1.598128 -1.701390 -6.104771 -9.928160 -93.882897 -5.725222 13.824980 -3.306607 -2.058007 -0.579928 3.767547 7.915089 12.798177 -8.438382 -5.267285 -0.437953 1.712371 -4.764746 -3.012648 4.668653 -0.058815 0.390258 -0.023186 7.968318 2.082075 11.641860 11.882814 15.489684 4.121250 1.027821 -9.743801 -14.376685 0.033128 2.791131 -0.244762
18.967365 88.664148 -3.335968 42.315915 -7.357599 3.125846 2.905752 4.760144 1.598966 1.690965 2.772488 0.847612 2.120730 3.461582 1.072603 1.690966 2.772488 0.847613 1.478216 15.320114 -1.665899 1.925058 -9.630924 -2.079055 -4.933121 -1.813357 -3.354437 2.431882 -1.719454 85.965702 5.986508 -2.295847 3.381036 3.885339 -5.302331 -5.130285 -11.051147 -1.604157 -1.691076 -6.112313 -9.854044 -93.831252 -6.310531 14.437495 -3.458721 -1.843500 0.041557 3.382655 7.859512 12.696878 -8.350657 -5.296948 -0.472535 1.665360 -4.753926 -2.886171 4.664846 -0.048772 0.278876 -0.006818 8.097111 2.190800 11.661137 11.991136 14.668573 3.987045 1.054501 -9.647049 -14.320793 0.035098 2.665288 -0.116892
19.012328 88.712975 -3.294899 42.353971 -7.278597 3.069842 2.877878 4.686844 1.651221 1.670552 2.738139 0.858461 2.095192 3.418646 1.085849 1.670553 2.738139 0.858461 1.488984 15.362193 -1.623971 1.926754 -9.587318 -2.037508 -4.970587 -1.788238 -3.399671 2.370680 -1.714867 85.929768 5.965548 -2.290896 3.323458 3.898094 -5.305504 -5.181579 -11.071397 -1.610874 -1.668521 -6.140721 -9.782586 -93.788673 -6.846326 14.941242 -3.601776 -1.603491 0.674798 2.988493 7.825981 12.654738 -8.289274 -5.322293 -0.509048 1.635127 -4.738528 -2.716017 4.653058 -0.034798 0.118376 0.011858 8.235380 2.334421 11.657809 12.102854 13.856637 3.839345 1.130896 -9.445624 -14.281270 0.009439 2.450801 0.010955
19.065718 88.760401 -3.252674 42.423650 -7.180973 3.002861 2.822291 4.591222 1.698671 1.648528 2.701483 0.872191 2.067652 3.372819 1.102678 1.648528 2.701483 0.872191 1.501042 15.408880 -1.585707 1.930708 -9.538707 -2.000173 -5.009115 -1.765182 -3.452878 2.303722 -1.708973 85.898445 5.919455 -2.288515 3.266116 3.881655 -5.304308 -5.220038 -11.085637 -1.618790 -1.637885 -6.188505 -9.713387 -93.759802 -7.317123 15.324773 -3.727512 -1.341922 1.278635 2.594992 7.750179 12.604624 -8.235313 -5.348342 -0.543833 1.622231 -4.713509 -2.630837 4.639000 -0.027700 0.026675 0.024851 8.296093 2.443038 11.646444 12.222382 13.063566 3.678926 1.231326 -9.156621 -14.267766 -0.012898 2.178095 0.148497
19.127021 88.803106 -3.210208 42.504667 -7.071478 2.926678 2.755162 4.479491 1.741365 1.626671 2.663087 0.889790 2.040343 3.324801 1.124341 1.626671 2.663087 0.889790 1.512330 15.458352 -1.551974 1.934940 -9.487032 -1.967466 -5.047605 -1.745849 -3.510773 2.229098 -1.698074 85.867250 5.854269 -2.288479 3.212742 3.840210 -5.296970 -5.248596 -11.098635 -1.627052 -1.606002 -6.248112 -9.646981 -93.745809 -7.711881 15.594708 -3.829868 -1.065970 1.812915 2.216157 7.666380 12.544576 -8.178752 -5.360962 -0.572377 1.611285 -4.702445 -2.564019 4.633368 -0.020273 -0.057231 0.031634 8.293858 2.532737 11.629993 12.364724 12.283544 3.512097 1.319695 -8.657234 -14.275211 -0.043585 1.760243 0.287240
19.202684 88.839660 -3.168489 42.565196 -6.983489 2.878439 2.702872 4.385528 1.746234 1.606353 2.624126 0.911655 2.014985 3.276056 1.151352 1.606353 2.624126 0.911656 1.521269 15.508738 -1.522737 1.937765 -9.434298 -1.938967 -5.085707 -1.730737 -3.567137 2.147893 -1.681073 85.831102 5.773741 -2.291013 3.162569 3.784383 -5.286678 -5.265535 -11.115037 -1.635005 -1.576545 -6.309589 -9.582254 -93.745062 -8.030775 15.769360 -3.907933 -0.776659 2.245903 1.869637 7.616582 12.517039 -8.145678 -5.347145 -0.595650 1.592009 -4.730555 -2.515819 4.647321 -0.010029 -0.134007 0.033383 8.271275 2.645695 11.581156 12.550976 11.513368 3.349902 1.327736 -7.973688 -14.214400 -0.062266 1.261192 0.355508
19.291860 88.868783 -3.129761 42.615930 -6.914668 2.864684 2.655052 4.303572 1.705160 1.587057 2.585894 0.937900 1.990932 3.228202 1.183853 1.587057 2.585894 0.937900 1.528666 15.559279 -1.498576 1.940165 -9.381278 -1.915468 -5.120211 -1.718316 -3.618343 2.064342 -1.658525 85.785641 5.678931 -2.296937 3.114216 3.724256 -5.278281 -5.271195 -11.134332 -1.642406 -1.553168 -6.361421 -9.520356 -93.756108 -8.275376 15.859888 -3.962489 -0.477104 2.573326 1.569772 7.601447 12.521935 -8.139966 -5.315187 -0.611894 1.559095 -4.797321 -2.505747 4.680793 0.002247 -0.186624 0.033911 8.238050 2.777073 11.490231 12.778145 10.762878 3.196414 1.167056 -7.104176 -13.871886 -0.036554 0.709429 0.204808
19.392214 88.889555 -3.103616 42.703751 -6.823135 2.911549 2.566368 4.187145 1.585395 1.567301 2.549325 0.967761 1.966330 3.182416 1.220884 1.567301 2.549326 0.967762 1.536649 15.609784 -1.478210 1.944083 -9.328155 -1.896114 -5.146219 -1.706653 -3.662602 1.983588 -1.630555 85.727703 5.569586 -2.307989 3.068086 3.666803 -5.269033 -5.265582 -11.148612 -1.648232 -1.535940 -6.396447 -9.464866 -93.780952 -8.444075 15.881943 -3.991096 -0.181382 2.804037 1.326130 7.570647 12.517286 -8.200668 -5.287754 -0.620048 1.508744 -4.885036 -2.518147 4.732126 0.019046 -0.227594 0.039157 8.159180 2.881114 11.322683 12.977525 10.055878 3.054967 0.831569 -6.123486 -13.210618 0.068021 0.204455 -0.157900
19.498386 88.901971 -3.088638 42.851654 -6.699451 2.990128 2.420969 4.021296 1.414552 1.546227 2.514991 1.000313 1.940100 3.139418 1.261283 1.546227 2.514991 1.000313 1.545529 15.659926 -1.459047 1.949234 -9.275326 -1.878240 -5.163824 -1.696264 -3.698099 1.910619 -1.595996 85.654278 5.446758 -2.322869 3.024234 3.614934 -5.257400 -5.248028 -11.155702 -1.651876 -1.522098 -6.411060 -9.414496 -93.821909 -8.541433 15.859388 -3.989342 0.087937 2.947380 1.143671 7.499464 12.493534 -8.300684 -5.281812 -0.625817 1.444566 -4.972421 -2.584116 4.793450 0.034250 -0.225304 0.049486 8.013597 2.931462 11.107201 13.045692 9.439850 2.943741 0.453766 -5.196670 -12.444074 0.233529 -0.108279 -0.551304
19.605431 88.908102 -3.049938 42.937500 -6.672619 2.953144 2.351535 3.936211 1.361318 1.523488 2.483327 1.034590 1.911802 3.099758 1.303844 1.523488 2.483327 1.034590 1.553707 15.707950 -1.438613 1.953343 -9.224738 -1.858852 -5.179142 -1.692747 -3.718857 1.848616 -1.551090 85.561305 5.316252 -2.337400 2.983377 3.569724 -5.247590 -5.225553 -11.164725 -1.658240 -1.511650 -6.403129 -9.363319 -93.875331 -8.578866 15.802283 -3.954854 0.312683 3.025413 1.022281 7.532590 12.556833 -8.242902 -5.299335 -0.629908 1.373442 -5.043649 -2.642144 4.840055 0.043434 -0.237981 0.063593 7.925532 3.027494 11.020445 12.933066 8.992122 2.872072 0.351268 -4.402592 -11.830323 0.284536 -0.281850 -0.796681
19.711970 88.909565 -2.975774 42.914489 -6.786352 2.753020 2.409639 3.981777 1.482468 1.499204 2.453918 1.069562 1.881580 3.062924 1.347275 1.499204 2.453917 1.069562 1.558738 15.751231 -1.417321 1.953911 -9.179224 -1.837800 -5.198061 -1.699686 -3.717775 1.796876 -1.495589 85.443657 5.181298 -2.347406 2.945325 3.535386 -5.239561 -5.206589 -11.181648 -1.674568 -1.509035 -6.378389 -9.306363 -93.933609 -8.570046 15.711323 -3.884240 0.483612 3.066053 0.957915 7.720784 12.741146 -7.967035 -5.335891 -0.632721 1.304575 -5.095451 -2.657645 4.862516 0.046502 -0.297239 0.078794 7.955871 3.182766 11.128945 12.728430 8.775144 2.869403 0.519286 -3.832376 -11.516203 0.195165 -0.399772 -0.826860
19.823023 88.907381 -2.888642 42.851388 -6.966361 2.496548 2.522092 4.089553 1.663898 1.473869 2.425314 1.104630 1.850043 3.027103 1.390827 1.473870 2.425313 1.104629 1.557555 15.788060 -1.397651 1.948270 -9.140622 -1.816977 -5.220475 -1.709952 -3.694530 1.748863 -1.438742 85.300856 5.036430 -2.347315 2.906849 3.516413 -5.230195 -5.193232 -11.206635 -1.700104 -1.519935 -6.341832 -9.241164 -93.989736 -8.529116 15.596965 -3.778347 0.589499 3.086864 0.947222 7.969051 12.989866 -7.616765 -5.392941 -0.638450 1.244867 -5.131185 -2.681151 4.876771 0.044354 -0.352499 0.090538 8.070206 3.322404 11.322189 12.593847 8.754330 2.971864 0.575341 -3.456791 -11.405265 0.112595 -0.521915 -0.761776
19.931190 88.901064 -2.809899 42.852623 -7.092602 2.226033 2.579981 4.138642 1.847083 1.448732 2.397214 1.139375 1.818746 2.991918 1.433984 1.448732 2.397214 1.139375 1.549177 15.817729 -1.379367 1.935325 -9.109721 -1.795900 -5.242032 -1.712020 -3.653214 1.697983 -1.394772 85.138984 4.874004 -2.335341 2.864304 3.514517 -5.218855 -5.187255 -11.238934 -1.728215 -1.545143 -6.291373 -9.170921 -94.039065 -8.466502 15.474002 -3.642628 0.625023 3.098457 0.990930 8.158441 13.186382 -7.272614 -5.472480 -0.648877 1.192759 -5.149675 -2.741457 4.896358 0.036840 -0.371232 0.094709 8.187617 3.370419 11.538763 12.538893 8.822588 3.123835 0.450417 -3.287576 -11.407254 0.107622 -0.573304 -0.651450
20.041231 88.892262 -2.744731 42.899096 -7.161035 1.985291 2.587241 4.125685 1.990228 1.426441 2.371249 1.173189 1.791005 2.959400 1.476006 1.426442 2.371249 1.173189 1.535808 15.839590 -1.360219 1.916874 -9.087217 -1.772712 -5.259624 -1.699287 -3.595940 1.644781 -1.374374 84.963602 4.690498 -2.316189 2.815124 3.528946 -5.208577 -5.194281 -11.273888 -1.754606 -1.581663 -6.227382 -9.101802 -94.080297 -8.385268 15.348050 -3.482190 0.599627 3.107327 1.088542 8.289725 13.326190 -6.983211 -5.566941 -0.663089 1.141737 -5.155606 -2.767945 4.929294 0.032849 -0.415583 0.093818 8.293102 3.393209 11.743741 12.414404 8.866478 3.219565 0.365447 -3.264837 -11.457342 0.143303 -0.534337 -0.510083
20.158246 88.882813 -2.691394 42.954418 -7.201071 1.793341 2.564873 4.078336 2.081253 1.410797 2.349115 1.204505 1.771567 2.931662 1.514966 1.410797 2.349115 1.204505 1.518430 15.853685 -1.337663 1.893361 -9.073099 -1.744965 -5.274068 -1.670342 -3.520262 1.588356 -1.381662 84.779928 4.483023 -2.293067 2.754341 3.556706 -5.203418 -5.217475 -11.308256 -1.776620 -1.626424 -6.152519 -9.036875 -94.109269 -8.285291 15.217270 -3.303985 0.528680 3.116133 1.233668 8.385318 13.446035 -6.763254 -5.665844 -0.682263 1.094383 -5.153268 -2.800167 4.978293 0.030016 -0.448771 0.086923 8.368762 3.473321 11.928242 12.133251 8.798899 3.191039 0.446970 -3.235240 -11.446299 0.164510 -0.482982 -0.405622
20.285202 88.873742 -2.647474 42.988530 -7.238490 1.655920 2.533283 4.017453 2.121156 1.405211 2.332608 1.232158 1.764698 2.910940 1.549436 1.405211 2.332608 1.232158 1.494698 15.860855 -1.311081 1.862183 -9.066539 -1.711472 -5.286143 -1.624268 -3.427408 1.521111 -1.419444 84.599536 4.248581 -2.267953 2.673597 3.593032 -5.204401 -5.254170 -11.344066 -1.791302 -1.677076 -6.063796 -8.978251 -94.121108 -8.168231 15.076849 -3.119715 0.428553 3.132623 1.416832 8.468239 13.570995 -6.612458 -5.766541 -0.703736 1.050751 -5.141207 -2.837983 5.042401 0.029049 -0.471397 0.076334 8.393797 3.647827 12.087093 11.777859 8.630456 3.038107 0.669393 -3.194267 -11.337615 0.148114 -0.423399 -0.355290
